<svg viewBox="0 0 1024 1024" xmlns="http://www.w3.org/2000/svg"><path d="m300 328a60 60 0 1 0 120 0 60 60 0 1 0 -120 0zm552-264h-680c-17.7 0-32 14.3-32 32v660c0 17.7 14.3 32 32 32h680c17.7 0 32-14.3 32-32v-660c0-17.7-14.3-32-32-32zm-32 660h-616v-596h616zm-216-396a60 60 0 1 0 120 0 60 60 0 1 0 -120 0zm250.2 556h-684.4c-16.5 0-29.8 14.3-29.8 32v36c0 4.4 3.3 8 7.4 8h729.1c4.1 0 7.4-3.6 7.4-8v-36c.1-17.7-13.2-32-29.7-32zm-190.2-376h-304c-4.4 0-8 3.6-8 8v60c0 4.4 3.6 8 8 8h304c4.4 0 8-3.6 8-8v-60c0-4.4-3.6-8-8-8z"/></svg>